<?xml version="1.0" encoding="UTF-8" standalone="no"?><!DOCTYPE svg PUBLIC "-//W3C//DTD SVG 1.1//EN" "http://www.w3.org/Graphics/SVG/1.1/DTD/svg11.dtd"><svg width="100%" height="100%" viewBox="0 0 325 246" version="1.1" xmlns="http://www.w3.org/2000/svg" xmlns:xlink="http://www.w3.org/1999/xlink" xml:space="preserve" xmlns:serif="http://www.serif.com/" style="fill-rule:evenodd;clip-rule:evenodd;stroke-linejoin:round;stroke-miterlimit:2;"><g><g><path d="M95.595,121.833c1.224,-4.214 2.5,-8.141 3.763,-11.295c6.89,-17.207 29.455,-57.933 29.455,-57.933c22.887,14.568 15.359,37.296 12.592,48.269c20.789,-15.898 19.535,-30.487 19.519,-50.749c-0.011,-13.049 8.51,-41.466 31.678,-50.126c-7.637,26.038 7.045,44.259 13.009,54.094c11.287,18.613 2.478,37.554 2.478,37.554c0,0 16.44,-5.96 15.722,-27.06c-0.207,-6.074 -3.04,-25.338 14.213,-32.68c-1.338,16.67 9.749,33.14 18.44,50.266l-8.681,39.839c-0.484,-0.119 -0.984,-0.181 -1.492,-0.181l-70.881,0c-2.942,-0 -5.486,2.052 -6.109,4.928l-1.731,8c-0.595,-1.06 -1.268,-2.066 -2.016,-3.02c-4.975,-6.345 -12.858,-9.909 -23.962,-9.909l-45.996,-0Z" style="fill:#c33;"/><g><path d="M25.278,128.083l60.12,0l-4.782,22.033l-28.694,0l-5.295,23.912l25.449,0l-4.782,22.204l-25.449,0l-10.419,47.994l-31.427,0l25.278,-116.142Z" style="fill:#f0f0f0;fill-rule:nonzero;"/><path d="M93.597,128.083l47.994,0c8.768,0 15.116,2.505 19.044,7.515c3.928,5.01 4.925,11.899 2.989,20.666l-4.441,22.204c-1.936,8.54 -5.409,14.831 -10.419,18.873c-5.01,4.042 -11.785,6.063 -20.325,6.063l-19.812,0l-8.881,40.82l-31.427,0l25.278,-116.142Zm27.669,54.143c2.05,0 3.644,-0.484 4.782,-1.452c1.139,-0.968 1.936,-2.704 2.391,-5.209l4.27,-19.471c0.911,-4.555 -0.569,-6.832 -4.441,-6.832l-7.857,0l-7.173,32.964l8.027,0Z" style="fill:#f0f0f0;fill-rule:nonzero;"/><path d="M190.609,150.969l-20.154,0l4.953,-22.887l70.881,0l-4.953,22.887l-19.471,0l-20.325,93.255l-31.256,0l20.325,-93.255Z" style="fill:#f0f0f0;fill-rule:nonzero;"/><path d="M249.022,150.457c3.074,-15.713 13.094,-23.57 30.06,-23.57l21.862,0c8.654,0 14.973,2.505 18.958,7.515c3.985,5.01 5.067,11.614 3.245,19.812l-2.562,13.664l-30.743,0l3.074,-13.835c0.911,-4.555 -0.683,-6.832 -4.782,-6.832l-1.708,0c-2.05,0 -3.644,0.484 -4.782,1.452c-1.139,0.968 -1.993,2.704 -2.562,5.209l-1.708,8.027c-0.455,2.391 -0.313,4.298 0.427,5.722c0.74,1.423 2.249,2.647 4.526,3.672l15.372,5.807c6.49,2.619 10.959,6.263 13.408,10.931c2.448,4.668 2.875,10.589 1.281,17.763l-3.416,16.055c-3.074,15.713 -13.151,23.57 -30.231,23.57l-22.374,0c-8.654,0 -14.973,-2.533 -18.958,-7.6c-3.985,-5.067 -5.067,-11.813 -3.245,-20.239l2.904,-14.518l31.256,0l-3.245,15.201c-0.911,4.555 0.626,6.832 4.612,6.832l2.05,0c2.05,0 3.615,-0.512 4.697,-1.537c1.082,-1.025 1.85,-2.733 2.306,-5.124l2.391,-10.248c0.569,-2.505 0.455,-4.441 -0.342,-5.807c-0.797,-1.366 -2.334,-2.562 -4.612,-3.587l-15.713,-6.149c-12.753,-5.01 -17.592,-14.632 -14.518,-28.865l3.074,-13.322Z" style="fill:#f0f0f0;fill-rule:nonzero;"/></g></g></g></svg>