<?xml version="1.0" encoding="UTF-8" standalone="no"?><!DOCTYPE svg PUBLIC "-//W3C//DTD SVG 1.1//EN" "http://www.w3.org/Graphics/SVG/1.1/DTD/svg11.dtd"><svg width="100%" height="100%" viewBox="0 0 269 251" version="1.1" xmlns="http://www.w3.org/2000/svg" xmlns:xlink="http://www.w3.org/1999/xlink" xml:space="preserve" xmlns:serif="http://www.serif.com/" style="fill-rule:evenodd;clip-rule:evenodd;stroke-linejoin:round;stroke-miterlimit:2;"><path d="M268.991,132.249l-25.683,118.576c0,0 -214.87,-0.102 -243.308,-0.006l0.044,-0.191c0,0 7.231,-49.54 16.106,-72.731c10.585,-27.661 47.405,-93.236 47.405,-93.236c36.835,23.445 24.719,60.024 20.266,77.683c33.457,-25.586 31.44,-49.066 31.413,-81.674c-0.017,-21.001 13.695,-66.734 50.983,-80.671c-12.292,41.906 11.338,71.23 20.936,87.057c18.164,29.955 3.987,60.439 3.987,60.439c0,0 26.459,-9.593 25.302,-43.549c-0.333,-9.775 -4.892,-40.778 22.874,-52.595c-2.153,26.829 15.689,53.335 29.676,80.897Z" style="fill:#c33;"/></svg>